<mxfile host="app.diagrams.net" modified="2024-01-02T06:46:39.272Z" agent="Mozilla/5.0 (Macintosh; Intel Mac OS X 10_15_7) AppleWebKit/537.36 (KHTML, like Gecko) Chrome/120.0.0.0 Safari/537.36" etag="BzVOIvmEaUGT78j2HbaJ" version="22.1.16" type="github">
  <diagram name="第 1 页" id="-bYgTaxVNJsQ00GNJId1">
    <mxGraphModel dx="858" dy="504" grid="1" gridSize="10" guides="1" tooltips="1" connect="1" arrows="1" fold="1" page="1" pageScale="1" pageWidth="827" pageHeight="1169" math="0" shadow="0">
      <root>
        <mxCell id="0" />
        <mxCell id="1" parent="0" />
        <mxCell id="XOAkBOD9G0rYFTy8uTz9-1" value="leader" style="whiteSpace=wrap;html=1;aspect=fixed;" vertex="1" parent="1">
          <mxGeometry x="390" y="40" width="80" height="80" as="geometry" />
        </mxCell>
        <mxCell id="XOAkBOD9G0rYFTy8uTz9-2" value="follower" style="whiteSpace=wrap;html=1;aspect=fixed;" vertex="1" parent="1">
          <mxGeometry x="200" y="240" width="80" height="80" as="geometry" />
        </mxCell>
        <mxCell id="XOAkBOD9G0rYFTy8uTz9-3" value="业务rocksdb" style="shape=cylinder3;whiteSpace=wrap;html=1;boundedLbl=1;backgroundOutline=1;size=15;" vertex="1" parent="1">
          <mxGeometry x="520" y="50" width="60" height="60" as="geometry" />
        </mxCell>
        <mxCell id="XOAkBOD9G0rYFTy8uTz9-4" value="" style="endArrow=classic;html=1;rounded=0;exitX=0;exitY=0.5;exitDx=0;exitDy=0;entryX=0.5;entryY=0;entryDx=0;entryDy=0;" edge="1" parent="1" source="XOAkBOD9G0rYFTy8uTz9-1" target="XOAkBOD9G0rYFTy8uTz9-2">
          <mxGeometry width="50" height="50" relative="1" as="geometry">
            <mxPoint x="390" y="290" as="sourcePoint" />
            <mxPoint x="440" y="240" as="targetPoint" />
          </mxGeometry>
        </mxCell>
        <mxCell id="XOAkBOD9G0rYFTy8uTz9-9" value="data. append. log" style="edgeLabel;html=1;align=center;verticalAlign=middle;resizable=0;points=[];" vertex="1" connectable="0" parent="XOAkBOD9G0rYFTy8uTz9-4">
          <mxGeometry x="0.0844" y="2" relative="1" as="geometry">
            <mxPoint as="offset" />
          </mxGeometry>
        </mxCell>
        <mxCell id="XOAkBOD9G0rYFTy8uTz9-5" value="follower" style="whiteSpace=wrap;html=1;aspect=fixed;" vertex="1" parent="1">
          <mxGeometry x="430" y="230" width="80" height="80" as="geometry" />
        </mxCell>
        <mxCell id="XOAkBOD9G0rYFTy8uTz9-6" value="" style="endArrow=classic;html=1;rounded=0;exitX=0.5;exitY=1;exitDx=0;exitDy=0;entryX=0.5;entryY=0;entryDx=0;entryDy=0;" edge="1" parent="1" source="XOAkBOD9G0rYFTy8uTz9-1" target="XOAkBOD9G0rYFTy8uTz9-5">
          <mxGeometry width="50" height="50" relative="1" as="geometry">
            <mxPoint x="520" y="190" as="sourcePoint" />
            <mxPoint x="570" y="140" as="targetPoint" />
          </mxGeometry>
        </mxCell>
        <mxCell id="XOAkBOD9G0rYFTy8uTz9-7" value="业务rocksdb" style="shape=cylinder3;whiteSpace=wrap;html=1;boundedLbl=1;backgroundOutline=1;size=15;" vertex="1" parent="1">
          <mxGeometry x="140" y="360" width="60" height="60" as="geometry" />
        </mxCell>
        <mxCell id="XOAkBOD9G0rYFTy8uTz9-8" value="raft 本身存储" style="shape=cylinder3;whiteSpace=wrap;html=1;boundedLbl=1;backgroundOutline=1;size=15;" vertex="1" parent="1">
          <mxGeometry x="250" y="390" width="60" height="60" as="geometry" />
        </mxCell>
        <mxCell id="XOAkBOD9G0rYFTy8uTz9-10" style="edgeStyle=orthogonalEdgeStyle;rounded=0;orthogonalLoop=1;jettySize=auto;html=1;exitX=0.5;exitY=1;exitDx=0;exitDy=0;entryX=0.333;entryY=0;entryDx=0;entryDy=0;entryPerimeter=0;" edge="1" parent="1" source="XOAkBOD9G0rYFTy8uTz9-2" target="XOAkBOD9G0rYFTy8uTz9-8">
          <mxGeometry relative="1" as="geometry" />
        </mxCell>
        <mxCell id="XOAkBOD9G0rYFTy8uTz9-11" value="log" style="edgeLabel;html=1;align=center;verticalAlign=middle;resizable=0;points=[];" vertex="1" connectable="0" parent="XOAkBOD9G0rYFTy8uTz9-10">
          <mxGeometry x="-0.04" y="4" relative="1" as="geometry">
            <mxPoint as="offset" />
          </mxGeometry>
        </mxCell>
      </root>
    </mxGraphModel>
  </diagram>
</mxfile>
